<?xml version="1.0" encoding="UTF-8" standalone="no"?>
<!-- Created with Inkscape (http://www.inkscape.org/) -->

<svg
   version="1.1"
   id="svg4394"
   xml:space="preserve"
   width="1066.6667"
   height="1066.6667"
   viewBox="0 0 1066.6667 1066.6667"
   sodipodi:docname="runner-start-4-pubicdomainvectors.org.svg"
   inkscape:version="1.1.2 (b8e25be833, 2022-02-05)"
   xmlns:inkscape="http://www.inkscape.org/namespaces/inkscape"
   xmlns:sodipodi="http://sodipodi.sourceforge.net/DTD/sodipodi-0.dtd"
   xmlns="http://www.w3.org/2000/svg"
   xmlns:svg="http://www.w3.org/2000/svg"><defs
     id="defs4398"><clipPath
       clipPathUnits="userSpaceOnUse"
       id="clipPath4408"><path
         d="M 0,800 H 800 V 0 H 0 Z"
         id="path4406" /></clipPath></defs><sodipodi:namedview
     id="namedview4396"
     pagecolor="#ffffff"
     bordercolor="#666666"
     borderopacity="1.0"
     inkscape:pageshadow="2"
     inkscape:pageopacity="0.0"
     inkscape:pagecheckerboard="0"
     showgrid="false"
     inkscape:zoom="0.77906244"
     inkscape:cx="533.33337"
     inkscape:cy="533.33337"
     inkscape:window-width="1920"
     inkscape:window-height="1018"
     inkscape:window-x="-8"
     inkscape:window-y="-8"
     inkscape:window-maximized="1"
     inkscape:current-layer="g4400" /><g
     id="g4400"
     inkscape:groupmode="layer"
     inkscape:label="runner-start-4-pubicdomainvectors.org"
     transform="matrix(1.3333333,0,0,-1.3333333,0,1066.6667)"><g
       id="g4402"><g
         id="g4404"
         clip-path="url(#clipPath4408)"><path
           d="m 135.765,145.959 -10.614,-2.672 8.049,0.16 h 8.8 l -0.111,0.172 13.361,0.266 z"
           style="fill:#ae0a22;fill-opacity:1;fill-rule:nonzero;stroke:none"
           id="path4410" /><path
           d="m 146.886,146.119 -11.121,-0.16 19.485,-2.074 31.313,0.623 -0.136,2.178 -33.524,-0.481 c -1.824,-0.848 -3.87,-0.695 -6.017,-0.086"
           style="fill:#ac8c98;fill-opacity:1;fill-rule:nonzero;stroke:none"
           id="path4412" /><path
           d="m 677.827,514.812 c 1.764,-0.126 3.301,1.687 4.244,3.183 1.923,3.051 2.122,10.61 2.122,10.61 l 3.184,6.367 c 0,0 5.539,2.107 7.427,4.244 3.042,3.447 5.305,12.733 5.305,12.733 l 3.184,1.06 5.304,-3.182 2.122,9.548 c 0,0 -0.659,9.378 -2.122,13.794 -2.138,6.459 -4.914,13.058 -9.548,18.039 -4.547,4.884 -11.207,7.257 -16.978,10.61 -4.514,2.623 -8.899,5.605 -13.794,7.427 -3.055,1.137 -6.289,2.19 -9.548,2.122 -5.105,-0.107 -10.422,-1.218 -14.915,-3.668 l 33.819,-92.851 c 0.064,-0.013 0.131,-0.032 0.194,-0.036"
           style="fill:#dae262;fill-opacity:1;fill-rule:nonzero;stroke:none"
           id="path4414" /><path
           d="m 716.024,471.31 3.184,12.732 6.366,7.427 c 0,0 10.412,4.151 14.576,8.489 0.397,0.413 0.829,0.956 1.268,1.567 l -36.729,-6.574 -7.567,-12.225 17.538,-14.145 z"
           style="fill:#74e0e0;fill-opacity:1;fill-rule:nonzero;stroke:none"
           id="path4416" /><path
           d="m 745.717,508.724 7.444,12.454 c -0.376,2.765 -2.311,2.8 -4.714,2.018 l 8.958,8.593 1.062,5.305 c -1.787,4.585 -5.225,-2.392 -7.914,-4.139 l -7.497,-4.141 6.922,9.341 6.368,10.61 c 0.284,2.998 -1.368,2.604 -3.08,2.106 l -14.245,-16.038 5.653,20.298 c -0.311,3.479 -1.976,3.433 -4.836,0.279 -1.92,-4.599 -4.365,-12.883 -5.758,-13.794 l -2.331,-1.999 -6.278,-5.497 c 0,0 -6.544,-2.847 -8.473,-5.636 -3.047,-4.41 -2.291,-11.858 -3.6,-15.672 -1.721,-5.019 -2.679,-12.854 -2.679,-12.854 l -4.244,-2.123 -1.786,-2.884 36.729,6.574 c 2.049,2.845 4.299,7.199 4.299,7.199"
           style="fill:#afdf7b;fill-opacity:1;fill-rule:nonzero;stroke:none"
           id="path4418" /><path
           d="m 650.24,419.318 15.916,-12.732 c 0,0 7.922,-4.666 11.671,-3.184 5.021,1.985 8.488,13.793 8.488,13.793 l 2.105,3.369 -42.91,8.739 z"
           style="fill:#14b4ec;fill-opacity:1;fill-rule:nonzero;stroke:none"
           id="path4420" /><path
           d="m 640.69,439.479 4.82,-10.176 42.91,-8.739 8.506,13.608 10.611,20.161 7.123,14.248 -17.538,14.145 -4.44,-7.173 -8.489,-10.61 -6.366,-6.366 -2.122,-5.305 -4.244,2.121 c 0,0 -1.258,13.303 -4.244,19.099 -0.205,0.398 -0.457,0.815 -0.743,1.244 l -32.605,-26.404 z"
           style="fill:#67d7ef;fill-opacity:1;fill-rule:nonzero;stroke:none"
           id="path4422" /><path
           d="m 572.865,527.513 82.891,-26.274 -0.654,2.611 c 1.396,0.744 2.63,1.567 3.627,2.474 1.408,1.282 2.121,5.304 2.121,5.304 0,0 4.725,-2.451 6.367,-1.06 0.808,0.685 0,3.182 0,3.182 0,0 2.26,-0.522 3.183,0 1.795,1.017 3.183,5.306 3.183,5.306 0,0 2.105,-3.83 4.05,-4.208 l -33.819,92.851 c -0.337,-0.186 -0.672,-0.376 -1.001,-0.576 -4.493,-2.734 -6.893,-7.954 -10.61,-11.671 -3.719,-3.718 -8.622,-6.328 -11.672,-10.612 -3.126,-4.387 -6.367,-14.854 -6.367,-14.854 l -0.361,-2.171 -1.76,4.293 -5.89,5.89 z"
           style="fill:#dcf07c;fill-opacity:1;fill-rule:nonzero;stroke:none"
           id="path4424" /><path
           d="m 533.568,279.168 7.383,2.215 11.672,2.121 11.672,8.488 4.244,12.733 -1.06,13.793 -7.364,12.732 -6.997,16.496 -46.48,-64.205 z"
           style="fill:#31bded;fill-opacity:1;fill-rule:nonzero;stroke:none"
           id="path4426" /><path
           d="m 506.638,283.541 1.602,-10.883 6.186,1.295 15.916,4.246 3.226,0.969 z"
           style="fill:#0181dd;fill-opacity:1;fill-rule:nonzero;stroke:none"
           id="path4428" /><path
           d="m 506.638,283.541 46.48,64.205 -1.555,3.666 -4.245,6.365 c 0,0 -6.389,14.883 -11.867,22.233 l -42.486,-28.959 z"
           style="fill:#8bebdb;fill-opacity:1;fill-rule:nonzero;stroke:none"
           id="path4430" /><path
           d="m 572.865,527.513 28.44,-60.225 13.92,9.573 2.143,1.71 0.151,-1.495 13.622,-23.804 2.728,-3.94 32.605,26.404 c -2.757,4.13 -8.806,9.366 -8.806,9.366 l -1.063,12.733 -0.849,3.404 z"
           style="fill:#b7f3bb;fill-opacity:1;fill-rule:nonzero;stroke:none"
           id="path4432" /><path
           d="m 155.793,148.752 c -0.874,-1.252 -1.846,-2.061 -2.89,-2.547 l 33.524,0.481 -0.576,9.22 -30.058,-5.968 z"
           style="fill:#b16559;fill-opacity:1;fill-rule:nonzero;stroke:none"
           id="path4434" /><path
           d="m 135.765,145.959 11.121,0.16 c -1.188,0.336 -2.407,0.811 -3.636,1.326 z"
           style="fill:#b16559;fill-opacity:1;fill-rule:nonzero;stroke:none"
           id="path4436" /><path
           d="m 572.865,527.513 33.288,50.485 -2.599,2.599 -7.428,4.243 -6.366,10.612 c 0,0 -3.171,5.923 -5.304,8.488 -3.683,4.427 -12.733,11.672 -12.733,11.672 l -3.264,2.538 z"
           style="fill:#f2da4a;fill-opacity:1;fill-rule:nonzero;stroke:none"
           id="path4438" /><path
           d="m 564.295,456.455 15.605,2.743 20.536,7.492 0.869,0.598 -28.44,60.225 -124.501,-40.826 -4.56,-3.04 112.657,-31.6 z"
           style="fill:#d8f890;fill-opacity:1;fill-rule:nonzero;stroke:none"
           id="path4440" /><path
           d="m 457.13,463.882 32.97,-37.818 8.411,2.803 16.977,8.488 22.282,7.428 9.548,2.122 9.143,5.142 -112.657,31.6 -1.798,-1.199 5.473,-14.112 z"
           style="fill:#c5f5c1;fill-opacity:1;fill-rule:nonzero;stroke:none"
           id="path4442" /><path
           d="m 457.945,441.35 35.02,-90.299 42.486,28.959 c -0.291,0.39 -0.58,0.765 -0.865,1.111 -4.961,6.004 -18.037,14.854 -18.037,14.854 l -23.344,26.527 -3.105,3.562 -13.871,-4.623 z"
           style="fill:#c5f5c1;fill-opacity:1;fill-rule:nonzero;stroke:none"
           id="path4444" /><path
           d="m 496.43,270.229 0.709,0.103 11.101,2.326 -1.602,10.883 z"
           style="fill:#6cb0c4;fill-opacity:1;fill-rule:nonzero;stroke:none"
           id="path4446" /><path
           d="m 540.951,642.137 h -9.548 l -15.915,-2.122 -18.039,-2.122 -9.549,-2.122 -14.855,-4.244 -20.159,-9.549 -8.489,-4.244 -7.427,-1.062 c 0,0 -1.449,3.776 -3.184,3.426 l -16.975,-3.426 -6.725,2.017 8.596,-37.031 h 6.616 l -4.243,-6.366 -0.664,-0.997 3.775,-16.266 c 1.262,1.525 2.193,3.47 2.193,3.47 l 1.062,6.365 11.672,11.672 4.243,12.732 20.975,5.991 18.284,2.991 14.854,0.568 21.221,1.307 13,0.852 20.422,27.02 z"
           style="fill:#ffd100;fill-opacity:1;fill-rule:nonzero;stroke:none"
           id="path4448" /><path
           d="m 568.459,618.15 -15.836,12.315 -0.531,0.532 -20.422,-27.02 1.234,0.08 3.803,-10.727 18.039,-26.527 1.21,-1.541 -2.271,0.48 -9.55,-12.733 -14.854,-6.366 -11.672,-8.488 -18.039,-13.793 -19.097,-14.856 -26.527,-19.097 -5.582,-3.722 124.501,40.826 z"
           style="fill:#f9ed2d;fill-opacity:1;fill-rule:nonzero;stroke:none"
           id="path4450" /><path
           d="m 457.945,441.35 -19.059,20.751 -9.678,-90.531 h 0.984 l 9.971,-12.877 52.802,-7.642 z"
           style="fill:#cbf387;fill-opacity:1;fill-rule:nonzero;stroke:none"
           id="path4452" /><path
           d="m 447.479,468.336 -5.473,14.112 -1.018,-0.679 -1.063,-9.946 z"
           style="fill:#cbf387;fill-opacity:1;fill-rule:nonzero;stroke:none"
           id="path4454" /><path
           d="m 405.374,267.732 -0.854,-78.66 h 2.741 l 3.182,5.305 c 0,0 2.918,4.246 2.926,6.678 0.021,6.047 -7.17,16.664 -7.17,16.664 v 15.916 l 3.184,14.855 2.122,8.489 4.244,3.181 23.344,6.367 18.541,0.621 20.223,0.375 18.573,2.706 10.208,13.312 z"
           style="fill:#8bcfa3;fill-opacity:1;fill-rule:nonzero;stroke:none"
           id="path4456" /><path
           d="m 492.965,351.051 -52.802,7.642 3.173,-4.099 25.465,-16.977 26.526,-13.793 c 0,0 -12.934,-1.271 -19.098,-3.183 -1.848,-0.575 -3.659,-1.266 -5.44,-2.03 l 35.849,-35.07 z"
           style="fill:#96eaa2;fill-opacity:1;fill-rule:nonzero;stroke:none"
           id="path4458" /><path
           d="m 506.638,283.541 -35.849,35.07 c -3.609,-1.548 -7.092,-3.422 -10.476,-5.398 -2.627,-1.533 -4.758,-3.846 -7.427,-5.305 -6.686,-3.654 -21.221,-8.488 -21.221,-8.488 l -20.019,-6.006 -6.272,-25.682 z"
           style="fill:#9ae292;fill-opacity:1;fill-rule:nonzero;stroke:none"
           id="path4460" /><path
           d="m 416.811,568.925 v -5.305 c 0,0 1.629,-7.059 4.49,-7.373 0.982,-0.109 2.001,0.738 2.865,1.782 l -3.775,16.266 z"
           style="fill:#ffce00;fill-opacity:1;fill-rule:nonzero;stroke:none"
           id="path4462" /><path
           d="m 406.199,619.856 -10.61,5.305 h -4.244 l -1.061,-5.305 18.037,-9.55 1.062,-2.122 -23.343,5.305 c 0,0 -6.289,-0.778 -6.935,-3.247 -0.543,-2.079 3.751,-5.241 3.751,-5.241 l 23.343,-6.367 v -1.06 l -25.465,-12.734 -1.06,-4.243 4.244,-2.122 22.281,7.427 -3.181,-1.062 -9.551,-8.487 -7.181,-7.117 c 0,0 0.457,-3.646 1.876,-4.309 2.005,-0.935 6.366,1.876 6.366,1.876 l 9.55,5.305 11.671,9.55 h 2.933 l -8.596,37.031 z"
           style="fill:#ffce00;fill-opacity:1;fill-rule:nonzero;stroke:none"
           id="path4464" /><path
           d="m 372.246,417.195 -27.587,-15.916 -15.916,-12.73 -8.488,-9.551 -11.279,-14.412 100.21,-3.482 4.441,3.039 7.812,4.558 -46.511,58.328 z"
           style="fill:#f0d03c;fill-opacity:1;fill-rule:nonzero;stroke:none"
           id="path4466" /><path
           d="m 437.106,473.124 2.819,-1.301 1.063,9.946 -6.514,-4.343 2.496,0.249 z"
           style="fill:#f6e63a;fill-opacity:1;fill-rule:nonzero;stroke:none"
           id="path4468" /><path
           d="m 429.187,473.901 -0.142,-1.085 -0.564,0.614 z m 9.699,-11.8 -1.498,1.631 -0.282,9.392 -5.369,2.477 2.737,1.825 -18.725,-1.873 -9.55,-3.183 -11.671,-8.488 -9.549,-11.672 -6.367,-11.671 -3.684,-13.51 46.511,-58.328 4.92,2.869 h 2.849 z"
           style="fill:#f6e63a;fill-opacity:1;fill-rule:nonzero;stroke:none"
           id="path4470" /><path
           d="m 301.156,354.594 -12.383,-9.906 43.539,-28.735 3.806,1.193 c 0,0 8.376,2.227 12.282,4.051 6.968,3.258 19.602,12.176 19.602,12.176 l 25.465,16.977 15.719,10.754 -100.21,3.482 z"
           style="fill:#c7df6f;fill-opacity:1;fill-rule:nonzero;stroke:none"
           id="path4472" /><path
           d="m 411.646,293.414 -11.813,-3.543 -16.977,-3.183 v 6.365 l -7.426,-4.244 -1.133,-0.567 31.077,-20.51 z"
           style="fill:#c7df6f;fill-opacity:1;fill-rule:nonzero;stroke:none"
           id="path4474" /><path
           d="m 370.328,244.504 c 3.159,-5.928 6.034,-16.174 6.034,-16.174 l 8.617,-23.344 16.976,-15.914 h 2.565 l 0.854,78.66 z"
           style="fill:#b5b995;fill-opacity:1;fill-rule:nonzero;stroke:none"
           id="path4476" /><path
           d="m 354.009,269.666 1.26,-4.199 3.184,-8.488 c 0,0 8.054,-6.491 10.856,-10.741 0.341,-0.517 0.682,-1.101 1.019,-1.734 l 35.046,23.228 z"
           style="fill:#c2b266;fill-opacity:1;fill-rule:nonzero;stroke:none"
           id="path4478" /><path
           d="m 230.208,255.213 0.919,0.703 25.465,12.734 6.075,4.454 -38.884,1.464 z"
           style="fill:#c2b266;fill-opacity:1;fill-rule:nonzero;stroke:none"
           id="path4480" /><path
           d="m 374.297,288.242 -15.844,-7.922 -6.367,-4.242 1.923,-6.412 51.365,-1.934 z"
           style="fill:#d3bf53;fill-opacity:1;fill-rule:nonzero;stroke:none"
           id="path4482" /><path
           d="m 285.241,341.861 -22.283,-9.548 -14.854,-8.489 -8.646,-4.324 -15.675,-44.932 38.884,-1.464 9.841,7.216 13.793,11.672 13.794,7.428 c 0,0 4.316,-0.545 6.366,0 5.512,1.463 14.854,8.488 14.854,8.488 l 6.432,6.613 4.565,1.432 -43.539,28.735 z"
           style="fill:#d3bf53;fill-opacity:1;fill-rule:nonzero;stroke:none"
           id="path4484" /><path
           d="m 155.793,160.494 v 4.172 l 13.794,28.648 1.985,4.965 -26.095,-38.129 z"
           style="fill:#bc5024;fill-opacity:1;fill-rule:nonzero;stroke:none"
           id="path4486" /><path
           d="m 182.319,210.291 -0.994,2.238 -4.196,-6.131 z"
           style="fill:#bc5024;fill-opacity:1;fill-rule:nonzero;stroke:none"
           id="path4488" /><path
           d="m 185.851,155.906 -0.349,5.578 -29.709,-0.99 v -10.556 z"
           style="fill:#bc5024;fill-opacity:1;fill-rule:nonzero;stroke:none"
           id="path4490" /><path
           d="m 135.765,145.959 7.485,1.486 c -1.512,0.637 -3.039,1.338 -4.541,1.928 l -0.295,0.457 z"
           style="fill:#bc5024;fill-opacity:1;fill-rule:nonzero;stroke:none"
           id="path4492" /><path
           d="m 188.263,222.668 0.423,0.357 7.427,8.489 16.977,10.609 17.118,13.09 -6.425,19.355 z"
           style="fill:#bc5024;fill-opacity:1;fill-rule:nonzero;stroke:none"
           id="path4494" /><path
           d="m 239.458,319.5 -6.209,-3.104 -4.244,-3.183 -7.181,-11.231 -11.918,-12.111 -3.021,-3.398 16.898,-11.905 z"
           style="fill:#e07000;fill-opacity:1;fill-rule:nonzero;stroke:none"
           id="path4496" /><path
           d="m 187.305,265.107 c -0.254,-0.279 -0.504,-0.552 -0.742,-0.812 -7.294,-8.004 -17.552,-14.191 -21.052,-16.184 l -0.169,0.379 -14.854,-1.062 -12.733,-4.244 -4.244,-3.182 -3.183,-10.611 2.122,-12.733 v -19.097 l -6.366,-28.651 5.951,-9.209 13.442,0.449 26.095,38.129 2.259,5.647 3.298,2.472 4.196,6.131 -1.379,3.102 8.317,7.037 35.52,51.9 z"
           style="fill:#c22c00;fill-opacity:1;fill-rule:nonzero;stroke:none"
           id="path4498" /><path
           d="m 135.765,145.959 2.649,3.871 -6.379,9.871 -0.539,-0.017 -12.031,17.447 z"
           style="fill:#c22c00;fill-opacity:1;fill-rule:nonzero;stroke:none"
           id="path4500" /><path
           d="m 206.885,286.473 -5.467,-6.153 c 0,0 -8.804,-9.412 -14.113,-15.213 l 36.478,9.461 z"
           style="fill:#d54200;fill-opacity:1;fill-rule:nonzero;stroke:none"
           id="path4502" /><path
           d="m 135.765,145.959 -16.3,31.172 -8.236,11.941 -7.427,5.305 -12.733,-14.856 -2.661,-15.078 z"
           style="fill:#be0006;fill-opacity:1;fill-rule:nonzero;stroke:none"
           id="path4504" /><path
           d="m 135.765,145.959 -47.357,18.484 -1.099,-6.232 -60.963,-2.033 v -14.854 l 98.805,1.963 z"
           style="fill:#b0001f;fill-opacity:1;fill-rule:nonzero;stroke:none"
           id="path4506" /></g></g></g></svg>
